<?xml version="1.0" encoding="UTF-8" standalone="no"?>
<!DOCTYPE svg PUBLIC "-//W3C//DTD SVG 20010904//EN"
              "http://www.w3.org/TR/2001/REC-SVG-20010904/DTD/svg10.dtd">

<svg xmlns="http://www.w3.org/2000/svg"
     width="6.88in" height="5.55in"
     viewBox="0 0 688 555">
  <path id="Selection"
        fill="black" stroke="black" stroke-width="7"
        d="M 119.00,257.00
           C 118.53,255.48 118.54,254.75 117.41,253.41
             115.38,251.05 103.80,246.84 99.08,239.71
             97.46,237.26 96.38,232.89 95.63,230.00
             94.07,224.03 89.72,212.70 91.84,207.00
             91.84,207.00 104.29,185.00 104.29,185.00
             105.77,178.29 98.46,178.01 94.00,178.00
             94.00,178.00 72.00,178.00 72.00,178.00
             69.96,177.97 67.22,178.04 65.48,176.83
             63.09,175.15 61.67,168.82 60.86,166.00
             58.04,156.20 55.64,150.60 54.28,140.00
             53.70,135.41 51.21,122.10 55.31,119.30
             56.98,118.17 63.69,116.71 66.00,116.13
             66.00,116.13 85.00,111.13 85.00,111.13
             89.41,109.99 94.79,107.90 93.23,102.04
             92.18,98.09 83.28,92.50 80.30,88.91
             77.33,85.34 74.25,71.24 72.88,66.00
             72.12,63.07 71.13,60.00 72.09,57.00
             72.95,54.33 76.13,50.31 77.88,48.00
             79.98,45.24 84.99,38.31 88.01,37.15
             91.27,35.90 95.28,38.97 98.00,40.60
             101.81,42.89 119.19,54.12 122.00,54.63
             125.48,55.26 136.01,47.73 140.00,45.86
             142.08,44.88 144.73,44.00 145.99,41.78
             146.54,40.29 146.01,30.44 145.99,28.00
             145.98,22.92 143.54,8.19 145.99,4.48
             147.66,2.40 150.67,2.16 153.00,1.75
             160.34,0.48 162.42,-0.05 170.00,0.00
             172.40,0.02 175.43,-0.22 177.28,1.60
             179.10,3.39 180.22,9.38 180.87,12.00
             180.87,12.00 187.00,39.00 187.00,39.00
             187.00,39.00 211.00,45.00 211.00,45.00
             213.62,39.45 219.28,34.78 223.42,30.00
             226.04,26.99 233.41,18.64 237.00,17.70
             240.80,16.71 246.07,21.03 249.00,23.15
             252.36,25.59 257.96,29.37 259.83,33.01
             261.28,35.85 262.01,53.85 262.00,58.00
             261.98,68.41 260.39,68.02 255.75,77.00
             254.24,79.90 251.74,83.54 253.37,86.85
             256.05,92.35 269.71,89.03 275.00,89.09
             279.10,88.98 290.84,87.24 293.47,89.09
             295.90,90.97 296.76,98.05 297.25,101.00
             298.51,108.72 298.91,114.21 299.00,122.00
             299.00,122.00 300.00,135.00 300.00,135.00
             300.03,137.87 300.40,142.24 298.40,144.49
             296.56,146.57 289.84,148.39 287.00,149.33
             287.00,149.33 260.00,158.00 260.00,158.00
             264.34,167.17 279.09,176.52 282.83,184.00
             284.53,187.42 283.96,194.06 284.22,198.00
             284.06,202.74 285.78,209.83 284.22,214.00
             283.43,217.12 278.54,223.12 276.37,226.00
             274.18,228.91 271.07,233.99 267.00,233.93
             264.34,233.90 259.47,230.64 257.00,229.31
             257.00,229.31 235.00,217.94 235.00,217.94
             230.86,216.72 228.60,219.29 225.00,220.95
             213.82,226.10 212.16,225.29 212.00,239.00
             212.00,239.00 212.00,250.00 212.00,250.00
             212.20,260.68 217.25,256.38 223.00,252.29
             223.00,252.29 241.00,239.67 241.00,239.67
             243.74,237.87 246.54,235.82 250.00,236.56
             252.38,237.07 255.92,239.61 258.00,241.00
             261.14,243.10 267.37,247.13 269.40,250.09
             271.72,253.46 272.94,272.15 273.00,277.00
             273.07,283.14 273.08,284.07 271.42,290.00
             270.58,292.99 268.73,298.06 269.30,301.00
             269.83,303.69 274.13,310.11 275.69,313.00
             278.22,317.67 278.63,321.24 284.00,323.00
             284.00,323.00 285.00,298.00 285.00,298.00
             285.00,298.00 285.99,286.00 285.99,286.00
             286.08,282.84 286.15,274.21 288.57,272.14
             290.01,270.91 295.92,269.45 298.00,268.86
             298.00,268.86 320.00,263.34 320.00,263.34
             325.43,261.65 329.17,261.74 331.61,255.98
             331.61,255.98 338.41,236.00 338.41,236.00
             338.59,232.35 335.79,228.81 334.75,225.28
             333.89,222.39 334.00,218.06 334.00,215.00
             334.00,215.00 334.00,198.00 334.00,198.00
             334.00,198.00 335.00,175.00 335.00,175.00
             335.01,172.76 334.93,170.11 335.74,168.00
             337.51,163.37 348.87,153.12 353.00,149.58
             355.08,147.80 359.73,143.51 362.00,142.56
             365.99,140.89 371.39,144.52 375.00,146.22
             375.00,146.22 394.00,154.86 394.00,154.86
             396.59,156.01 401.44,158.67 404.00,159.00
             408.26,159.56 415.88,154.70 420.00,152.86
             420.00,152.86 441.00,145.02 441.00,145.02
             441.00,145.02 451.96,141.98 451.96,141.98
             456.75,139.99 457.82,135.45 459.60,131.00
             459.60,131.00 467.40,111.00 467.40,111.00
             468.28,108.79 470.24,103.23 471.79,101.74
             473.76,99.84 482.10,99.15 485.00,99.04
             485.00,99.04 497.00,99.96 497.00,99.96
             501.54,100.16 508.97,99.27 512.50,102.56
             514.46,104.38 516.16,109.40 517.20,112.00
             519.35,117.39 526.92,138.63 529.65,141.72
             532.04,144.45 543.87,147.78 548.00,149.32
             558.31,153.16 577.38,164.18 577.72,164.31
             580.85,165.48 585.05,162.84 588.00,161.58
             588.00,161.58 610.00,152.00 610.00,152.00
             614.62,150.04 617.44,147.96 622.00,151.32
             625.14,153.63 638.57,167.55 641.38,171.00
             643.42,173.49 646.28,176.60 646.20,180.00
             646.14,182.28 643.58,187.66 642.58,190.00
             642.58,190.00 634.00,209.99 634.00,209.99
             631.74,215.04 628.54,217.18 630.83,223.00
             630.83,223.00 635.69,233.00 635.69,233.00
             638.97,240.15 641.65,247.49 643.98,255.00
             645.20,258.97 646.50,267.63 649.43,270.19
             652.73,273.06 658.01,273.75 662.04,274.95
             662.04,274.95 677.00,280.60 677.00,280.60
             680.01,281.80 685.28,283.40 686.98,286.22
             688.20,288.26 688.00,291.66 688.00,294.00
             688.00,294.00 687.06,320.00 687.06,320.00
             687.04,322.86 687.79,325.17 687.06,328.00
             687.06,328.00 672.78,354.00 672.78,354.00
             670.70,357.91 663.37,372.01 660.79,374.34
             660.79,374.34 647.00,381.25 647.00,381.25
             647.00,381.25 635.09,387.31 635.09,387.31
             630.22,390.14 631.08,390.34 625.00,393.00
             625.00,393.00 636.24,417.00 636.24,417.00
             637.60,419.76 641.44,427.63 641.43,430.42
             641.41,434.03 633.44,447.06 631.31,451.00
             631.31,451.00 614.47,481.00 614.47,481.00
             610.42,486.26 604.96,490.79 600.00,495.15
             596.72,498.04 588.95,505.72 585.00,506.48
             581.66,507.12 576.13,504.48 573.00,503.15
             573.00,503.15 547.00,492.33 547.00,492.33
             542.42,491.11 538.38,493.30 534.00,494.58
             534.00,494.58 509.11,501.03 509.11,501.03
             504.86,502.80 503.61,508.94 502.00,513.00
             502.00,513.00 491.40,541.00 491.40,541.00
             490.42,543.46 487.90,550.89 486.30,552.40
             484.38,554.22 481.45,553.98 479.00,554.00
             479.00,554.00 446.00,554.00 446.00,554.00
             446.00,554.00 436.33,526.00 436.33,526.00
             435.24,522.77 432.67,514.72 430.49,512.50
             430.49,512.50 408.00,502.00 408.00,502.00
             404.54,500.04 390.57,491.17 388.00,491.14
             385.89,491.11 381.05,493.36 379.00,494.31
             379.00,494.31 361.00,502.78 361.00,502.78
             356.28,505.01 352.93,508.00 348.00,504.55
             342.98,501.05 329.10,485.72 326.85,480.00
             325.85,477.46 326.01,474.68 326.00,472.00
             326.00,472.00 326.00,426.00 326.00,426.00
             326.01,421.25 325.81,419.49 327.80,415.00
             329.09,412.07 332.83,405.85 332.87,403.00
             332.91,400.44 330.88,397.44 329.93,395.00
             328.59,391.55 328.34,388.62 328.00,385.00
             328.00,385.00 326.00,385.00 326.00,385.00
             324.98,387.10 324.49,388.47 322.61,390.03
             322.61,390.03 299.00,401.75 299.00,401.75
             295.76,403.38 291.95,404.93 289.93,408.10
             287.86,411.37 284.11,426.52 285.48,430.00
             285.48,430.00 301.89,453.00 301.89,453.00
             302.91,455.98 301.30,457.66 301.06,462.00
             301.06,462.00 301.99,474.00 301.99,474.00
             302.04,476.53 302.09,479.60 301.30,482.00
             299.63,487.15 291.21,499.69 286.00,501.36
             283.13,502.28 278.85,500.68 276.00,499.86
             276.00,499.86 255.00,492.93 255.00,492.93
             250.26,491.78 247.63,490.13 243.00,492.93
             243.00,492.93 225.00,505.14 225.00,505.14
             222.17,506.96 216.68,509.56 214.98,512.21
             213.61,514.36 213.03,519.36 212.59,522.00
             212.59,522.00 209.41,541.00 209.41,541.00
             208.95,543.77 208.55,549.09 206.44,550.99
             203.73,553.44 190.97,553.99 187.00,554.00
             187.00,554.00 181.00,554.00 181.00,554.00
             178.87,554.00 175.42,554.25 173.63,553.01
             171.66,551.63 169.96,547.23 169.00,545.00
             169.00,545.00 161.78,530.00 161.78,530.00
             160.03,526.30 159.10,521.71 154.90,520.23
             154.90,520.23 145.00,518.24 145.00,518.24
             145.00,518.24 130.00,512.72 130.00,512.72
             127.41,511.62 122.42,508.74 119.72,509.62
             119.72,509.62 98.00,524.88 98.00,524.88
             92.96,528.56 90.76,531.33 84.99,527.25
             84.99,527.25 78.00,521.16 78.00,521.16
             66.64,511.02 67.91,512.12 60.70,499.00
             58.62,495.23 55.45,491.52 56.17,487.00
             56.17,487.00 64.81,463.00 64.81,463.00
             66.18,459.40 68.66,454.79 66.91,451.00
             65.88,448.79 61.96,444.22 59.83,443.02
             57.49,441.69 50.89,441.19 48.00,440.85
             48.00,440.85 23.02,436.97 23.02,436.97
             18.91,435.41 17.56,432.48 15.31,429.00
             15.31,429.00 4.80,412.00 4.80,412.00
             2.97,407.68 0.43,392.97 0.09,388.00
             -0.10,385.28 -0.46,381.05 1.57,378.96
             3.91,376.56 22.54,368.47 27.00,366.25
             30.59,364.45 35.31,362.93 36.85,358.90
             36.85,358.90 41.72,336.00 41.72,336.00
             42.75,332.54 44.84,328.54 43.39,325.00
             43.39,325.00 36.65,315.00 36.65,315.00
             36.65,315.00 29.20,297.00 29.20,297.00
             27.93,293.82 25.18,288.31 25.88,285.00
             26.50,282.10 29.74,278.33 31.60,276.00
             34.09,272.87 39.38,265.56 43.00,264.35
             45.91,263.37 50.23,265.54 53.00,266.58
             53.00,266.58 73.00,273.33 73.00,273.33
             75.30,274.10 80.17,276.15 82.42,275.61
             84.21,275.17 90.92,270.37 93.00,269.05
             100.30,264.43 110.50,258.54 119.00,257.00 Z
           M 175.00,3.00
           C 175.00,3.00 157.00,5.00 157.00,5.00
             154.78,5.32 151.47,5.61 150.02,7.56
             148.85,9.14 149.01,12.10 149.00,14.00
             149.00,14.00 150.02,27.00 150.02,27.00
             150.02,27.00 150.02,40.00 150.02,40.00
             150.40,48.33 147.70,45.90 134.00,53.87
             134.00,53.87 125.51,59.49 125.51,59.49
             121.70,61.30 116.15,56.66 113.00,54.68
             113.00,54.68 97.00,44.81 97.00,44.81
             94.80,43.48 91.77,41.29 89.09,42.24
             86.67,43.10 82.36,48.82 80.75,51.00
             79.48,52.71 77.05,55.81 77.16,58.00
             77.28,60.57 80.30,63.26 82.00,65.00
             82.00,65.00 96.00,79.00 96.00,79.00
             98.68,81.70 102.66,84.79 102.25,89.00
             102.25,89.00 97.21,106.00 97.21,106.00
             96.58,108.71 96.26,111.07 93.72,112.70
             93.72,112.70 68.00,119.63 68.00,119.63
             65.83,120.19 60.12,121.54 58.60,122.93
             56.04,125.28 57.15,131.88 57.58,135.00
             57.95,137.75 58.28,144.42 59.98,146.40
             61.72,148.43 65.57,147.95 68.00,148.01
             68.00,148.01 77.00,148.96 77.00,148.96
             77.00,148.96 88.00,148.96 88.00,148.96
             90.90,149.00 94.25,148.85 96.96,150.01
             102.34,152.32 104.93,161.08 108.09,166.00
             110.30,169.46 114.90,173.66 113.64,178.00
             113.64,178.00 100.60,200.00 100.60,200.00
             99.37,202.06 96.20,206.70 96.29,208.99
             96.47,213.01 106.63,219.66 110.00,221.79
             116.84,226.12 118.99,222.00 124.00,217.00
             124.00,217.00 142.58,198.81 142.58,198.81
             143.85,198.04 144.62,197.89 146.09,198.00
             146.09,198.00 163.96,202.39 163.96,202.39
             168.37,203.89 168.83,206.95 169.87,211.00
             169.87,211.00 175.13,232.00 175.13,232.00
             175.71,234.33 176.59,239.58 178.56,241.07
             180.48,242.31 183.80,241.38 186.00,241.07
             186.00,241.07 203.00,239.00 203.00,239.00
             203.00,239.00 204.21,227.00 204.21,227.00
             204.21,227.00 204.21,209.00 204.21,209.00
             204.84,205.87 204.83,200.80 206.74,198.39
             208.59,196.04 215.92,192.85 219.00,190.94
             221.79,189.20 226.99,184.71 230.00,184.73
             232.24,184.74 235.94,187.13 238.00,188.22
             238.00,188.22 255.00,197.42 255.00,197.42
             257.62,198.90 261.80,201.93 264.91,200.77
             267.35,199.86 270.70,195.15 272.26,193.00
             272.26,193.00 278.00,184.00 278.00,184.00
             278.00,184.00 259.00,165.00 259.00,165.00
             256.96,162.96 252.13,158.54 251.23,156.00
             250.28,153.33 253.15,146.04 253.99,143.00
             254.94,139.52 256.07,130.20 257.60,128.14
             260.07,124.79 265.17,124.08 269.00,123.13
             269.00,123.13 295.00,117.00 295.00,117.00
             294.95,111.83 294.82,111.95 294.13,107.00
             293.75,104.25 292.62,95.46 291.02,93.60
             288.76,90.98 283.00,92.36 280.00,92.72
             280.00,92.72 268.00,93.29 268.00,93.29
             264.15,93.54 257.68,94.82 254.04,93.29
             249.44,91.61 246.13,82.37 243.30,78.00
             243.30,78.00 237.77,70.00 237.77,70.00
             236.18,66.29 239.06,63.02 240.95,60.00
             240.95,60.00 251.58,43.00 251.58,43.00
             252.80,41.01 255.29,37.41 254.99,35.04
             254.42,30.69 241.89,23.19 238.00,21.00
             238.00,21.00 219.00,41.00 219.00,41.00
             219.00,41.00 210.83,48.30 210.83,48.30
             210.83,48.30 199.00,45.43 199.00,45.43
             199.00,45.43 185.43,41.41 185.43,41.41
             185.43,41.41 181.13,30.00 181.13,30.00
             181.13,30.00 175.00,3.00 175.00,3.00 Z
           M 257.09,42.00
           C 254.47,45.01 242.71,62.99 241.97,66.00
             240.98,70.03 245.93,75.40 248.00,79.00
             248.00,79.00 250.00,79.00 250.00,79.00
             250.00,79.00 257.09,65.00 257.09,65.00
             258.74,60.54 258.31,46.62 257.09,42.00 Z
           M 78.00,66.00
           C 78.00,66.00 77.00,66.00 77.00,66.00
             77.00,66.00 78.00,67.00 78.00,67.00
             78.00,67.00 78.00,66.00 78.00,66.00 Z
           M 79.00,67.00
           C 77.85,70.46 78.77,72.56 79.63,76.00
             82.05,85.76 86.63,91.60 96.00,96.00
             96.00,96.00 98.03,88.00 98.03,88.00
             98.03,88.00 93.00,81.00 93.00,81.00
             93.00,81.00 79.00,67.00 79.00,67.00 Z
           M 527.00,148.00
           C 527.00,148.00 514.81,117.00 514.81,117.00
             513.54,113.72 511.68,106.86 508.73,105.02
             506.67,103.75 503.38,104.08 501.00,103.91
             501.00,103.91 484.00,103.00 484.00,103.00
             481.53,103.00 477.54,102.75 475.47,104.17
             473.36,105.62 471.75,110.58 470.81,113.00
             470.81,113.00 462.60,134.00 462.60,134.00
             461.47,136.86 459.95,142.27 457.58,144.07
             457.58,144.07 437.00,150.34 437.00,150.34
             437.00,150.34 408.00,163.00 408.00,163.00
             403.27,164.41 399.14,161.78 395.00,159.76
             395.00,159.76 375.00,150.69 375.00,150.69
             372.54,149.56 367.50,146.64 365.00,146.70
             362.36,146.76 359.94,148.84 358.00,150.44
             355.30,152.66 344.11,163.53 342.33,166.00
             338.78,170.90 341.91,175.29 344.25,180.00
             344.25,180.00 352.25,197.00 352.25,197.00
             353.32,199.16 356.57,205.46 356.76,207.58
             357.05,210.80 350.70,218.55 348.72,222.00
             344.15,229.97 340.67,237.40 337.42,246.00
             337.42,246.00 333.03,258.94 333.03,258.94
             330.71,263.66 325.63,264.10 321.00,265.42
             321.00,265.42 302.00,271.86 302.00,271.86
             299.44,272.59 293.48,273.91 291.74,275.72
             289.71,277.83 290.11,281.30 289.91,284.00
             289.91,284.00 289.00,304.00 289.00,304.00
             289.12,310.89 290.94,310.71 300.00,314.40
             300.00,314.40 318.00,322.60 318.00,322.60
             321.81,324.17 326.75,325.48 329.07,329.11
             330.50,331.36 332.04,339.79 332.88,343.00
             332.88,343.00 340.43,365.00 340.43,365.00
             341.78,368.15 347.79,379.05 347.78,381.42
             347.77,383.17 345.38,388.15 344.58,390.00
             344.58,390.00 334.75,410.00 334.75,410.00
             333.35,412.80 330.24,417.93 330.77,421.00
             331.34,424.31 338.66,432.23 341.17,435.00
             342.93,436.95 349.14,443.31 351.00,444.68
             355.76,448.19 359.14,445.69 364.00,443.81
             364.00,443.81 385.00,435.60 385.00,435.60
             388.28,434.30 392.46,432.21 396.00,433.26
             396.00,433.26 408.00,440.14 408.00,440.14
             414.37,443.69 423.20,447.99 430.00,450.58
             433.63,451.96 445.14,455.24 447.19,457.51
             448.62,459.09 450.35,463.83 451.28,466.00
             451.28,466.00 459.60,486.00 459.60,486.00
             460.74,488.80 462.94,495.13 465.41,496.71
             467.75,498.20 472.26,498.00 475.00,498.00
             475.00,498.00 495.00,498.00 495.00,498.00
             497.22,498.00 500.70,498.22 502.59,496.98
             504.90,495.45 506.74,489.66 507.80,487.00
             507.80,487.00 515.20,468.00 515.20,468.00
             516.15,465.59 518.05,460.24 519.70,458.51
             521.92,456.18 531.35,454.20 535.00,453.00
             543.92,450.05 550.42,447.67 559.00,443.69
             559.00,443.69 568.72,438.50 568.72,438.50
             571.26,437.79 576.50,440.75 579.00,441.86
             579.00,441.86 601.00,451.70 601.00,451.70
             605.32,453.63 608.54,455.64 613.00,452.96
             616.67,450.75 627.42,439.65 631.00,436.00
             633.51,433.43 636.58,430.95 636.07,427.00
             636.07,427.00 624.78,402.00 624.78,402.00
             623.02,398.26 620.46,394.08 622.32,390.00
             622.32,390.00 627.69,381.00 627.69,381.00
             631.74,373.54 635.27,365.88 638.40,358.00
             640.12,353.65 642.77,343.20 645.56,340.51
             647.63,338.50 652.22,337.19 655.00,335.96
             655.00,335.96 671.00,328.95 671.00,328.95
             673.78,327.91 680.33,325.76 682.02,323.50
             683.91,320.97 683.98,315.11 684.00,312.00
             684.00,312.00 684.00,294.00 684.00,294.00
             683.85,285.95 680.80,286.47 674.00,283.80
             674.00,283.80 655.00,275.46 655.00,275.46
             651.06,273.80 647.28,273.19 645.42,268.82
             644.57,266.81 641.39,251.28 634.14,235.00
             631.89,229.94 626.94,222.58 627.40,217.17
             627.80,212.48 635.94,195.42 638.28,190.00
             639.47,187.25 642.33,181.87 641.63,179.00
             640.94,176.18 635.49,170.42 633.42,168.00
             630.69,164.81 622.58,155.66 619.00,154.38
             615.47,153.12 610.22,156.24 607.00,157.70
             607.00,157.70 581.00,168.69 581.00,168.69
             576.29,169.51 570.31,164.49 566.00,162.26
             557.09,157.65 536.64,147.21 527.00,148.00 Z
           M 295.20,121.00
           C 295.20,121.00 260.00,129.00 260.00,129.00
             260.00,129.00 261.00,153.00 261.00,153.00
             261.00,153.00 287.00,145.33 287.00,145.33
             289.69,144.45 294.13,143.47 295.20,140.73
             297.09,137.07 295.35,125.33 295.20,121.00 Z
           M 257.00,148.00
           C 254.75,151.71 254.02,153.54 257.00,157.00
             257.00,157.00 257.00,148.00 257.00,148.00 Z
           M 101.00,174.00
           C 101.00,174.00 98.42,160.00 98.42,160.00
             98.42,160.00 96.26,153.99 96.26,153.99
             96.26,153.99 85.00,153.00 85.00,153.00
             85.00,153.00 75.00,152.04 75.00,152.04
             75.00,152.04 61.00,152.04 61.00,152.04
             61.86,155.77 65.86,171.12 68.51,172.98
             70.17,174.14 73.04,173.99 75.00,174.00
             75.00,174.00 101.00,174.00 101.00,174.00 Z
           M 105.00,168.00
           C 103.71,172.62 105.61,175.93 109.00,179.00
             109.91,173.64 107.99,172.28 105.00,168.00 Z
           M 340.00,179.00
           C 338.34,182.61 338.05,186.06 338.00,190.00
             338.00,190.00 338.00,207.00 338.00,207.00
             337.96,216.37 334.58,223.69 341.00,232.00
             343.62,227.40 352.52,212.50 352.57,208.00
             352.60,204.90 349.67,199.87 348.25,197.00
             348.25,197.00 340.00,179.00 340.00,179.00 Z
           M 280.00,189.00
           C 280.00,189.00 267.40,207.00 267.40,207.00
             267.40,207.00 269.00,227.00 269.00,227.00
             272.70,224.11 279.36,216.53 280.57,212.00
             281.57,208.26 280.00,194.51 280.00,189.00 Z
           M 228.00,190.00
           C 228.00,190.00 215.00,197.24 215.00,197.24
             215.00,197.24 209.66,201.39 209.66,201.39
             209.66,201.39 212.00,222.00 212.00,222.00
             212.00,222.00 228.31,213.78 228.31,213.78
             228.31,213.78 229.04,206.00 229.04,206.00
             229.04,206.00 228.00,190.00 228.00,190.00 Z
           M 266.00,229.00
           C 266.00,229.00 262.57,207.21 262.57,207.21
             262.57,207.21 254.00,201.14 254.00,201.14
             254.00,201.14 232.00,190.00 232.00,190.00
             232.00,190.00 232.91,204.00 232.91,204.00
             232.91,204.00 234.02,211.61 234.02,211.61
             234.02,211.61 244.00,217.78 244.00,217.78
             244.00,217.78 266.00,229.00 266.00,229.00 Z
           M 148.00,202.00
           C 148.00,202.00 147.00,202.00 147.00,202.00
             147.00,202.00 148.00,203.00 148.00,203.00
             148.00,203.00 148.00,202.00 148.00,202.00 Z
           M 144.00,203.00
           C 144.00,203.00 131.00,216.00 131.00,216.00
             131.00,216.00 146.00,214.00 146.00,214.00
             146.00,214.00 144.00,203.00 144.00,203.00 Z
           M 165.00,206.00
           C 165.00,206.00 148.00,203.00 148.00,203.00
             148.00,203.00 149.00,213.00 149.00,213.00
             149.00,213.00 159.87,214.02 159.87,214.02
             159.87,214.02 171.00,232.00 171.00,232.00
             171.00,232.00 165.00,206.00 165.00,206.00 Z
           M 97.00,217.00
           C 96.72,220.40 98.06,223.74 99.00,227.00
             99.00,227.00 101.65,235.83 101.65,235.83
             104.48,241.46 113.06,246.51 119.00,248.00
             119.00,248.00 113.44,229.21 113.44,229.21
             113.44,229.21 97.00,217.00 97.00,217.00 Z
           M 153.00,488.00
           C 154.14,494.06 161.31,508.60 164.23,515.00
             165.36,517.47 167.10,522.59 169.39,523.76
             171.24,525.03 181.41,523.93 184.00,523.76
             186.97,523.17 194.14,522.68 196.02,520.42
             197.27,518.90 197.99,514.07 198.40,512.00
             198.40,512.00 202.00,493.00 202.00,493.00
             202.54,490.31 203.20,485.50 204.85,483.41
             206.77,481.00 214.76,478.31 218.00,476.74
             223.53,474.06 228.88,471.06 234.00,467.65
             234.00,467.65 242.00,462.03 242.00,462.03
             246.78,459.25 250.10,461.45 255.00,462.86
             255.00,462.86 275.00,469.00 275.00,469.00
             277.61,469.85 282.19,471.72 284.83,470.68
             286.90,469.87 289.33,466.72 290.74,465.00
             292.14,463.28 294.80,459.94 295.69,458.00
             297.94,453.08 294.69,449.79 291.87,446.00
             291.87,446.00 279.87,430.00 279.87,430.00
             277.87,427.33 275.16,424.57 275.55,421.00
             275.55,421.00 279.66,410.00 279.66,410.00
             282.64,401.47 283.53,397.83 285.20,389.00
             285.99,384.78 285.42,378.60 288.43,375.63
             289.95,374.14 309.25,364.21 312.00,363.18
             315.51,361.86 321.75,360.11 322.60,355.90
             322.91,354.35 321.88,347.89 321.57,346.00
             321.02,342.76 319.72,333.79 317.44,331.74
             315.18,329.70 310.07,330.38 307.00,330.09
             307.00,330.09 288.00,327.58 288.00,327.58
             285.12,327.16 281.49,327.08 279.10,325.40
             275.80,323.08 272.14,314.87 269.80,311.00
             269.80,311.00 255.73,292.00 255.73,292.00
             254.61,290.34 253.83,289.07 253.83,287.00
             253.83,284.17 261.60,266.02 263.20,262.00
             264.17,259.56 266.07,255.69 265.30,253.09
             264.41,250.07 259.54,247.07 257.00,245.34
             255.32,244.21 251.86,241.77 250.00,241.30
             246.35,240.39 242.80,243.45 240.00,245.42
             240.00,245.42 223.00,257.34 223.00,257.34
             220.40,259.12 217.29,261.86 214.00,261.62
             212.21,261.49 207.02,259.19 205.00,258.42
             199.49,256.34 192.74,254.17 187.00,252.89
             180.82,251.50 178.24,253.08 175.63,250.60
             175.63,250.60 163.25,226.00 163.25,226.00
             162.02,223.55 160.13,218.75 157.61,217.71
             154.69,216.21 147.26,217.46 144.00,217.71
             141.55,218.14 136.22,218.56 134.14,219.56
             130.52,221.30 130.01,226.46 129.13,230.00
             129.13,230.00 124.35,250.00 124.35,250.00
             123.65,253.04 122.95,257.14 120.57,259.30
             118.70,261.01 112.67,263.08 110.00,264.31
             104.06,267.03 98.44,270.40 93.00,274.00
             90.12,275.91 85.33,279.90 82.00,280.06
             82.00,280.06 55.00,271.33 55.00,271.33
             52.05,270.35 46.95,268.08 44.00,269.20
             41.33,270.23 38.59,273.80 36.80,276.00
             35.55,277.55 32.48,281.35 31.71,283.00
             29.65,287.41 33.08,290.65 35.65,294.00
             35.65,294.00 47.13,309.00 47.13,309.00
             48.59,310.95 51.70,314.74 52.21,317.00
             52.85,319.82 46.93,333.09 45.67,337.00
             44.06,341.98 42.61,348.81 41.75,354.00
             41.39,356.23 40.99,361.08 39.98,362.79
             38.32,365.58 32.94,367.78 30.00,369.25
             30.00,369.25 3.00,382.00 3.00,382.00
             3.00,382.00 5.75,399.00 5.75,399.00
             6.18,401.53 6.49,405.32 8.56,407.07
             10.55,408.74 16.30,409.19 19.00,409.58
             19.00,409.58 45.90,413.28 45.90,413.28
             49.99,414.60 51.45,419.49 53.26,423.00
             56.46,429.19 60.43,435.46 64.65,441.00
             66.60,443.55 71.64,449.15 72.21,452.00
             72.76,454.75 69.87,461.20 68.81,464.00
             68.81,464.00 60.00,489.00 60.00,489.00
             63.39,491.14 72.84,498.66 76.00,499.00
             79.11,499.34 83.44,495.71 86.00,494.00
             86.00,494.00 102.00,483.00 102.00,483.00
             104.04,481.63 107.66,478.92 110.00,478.54
             112.71,478.09 120.70,481.61 124.00,482.58
             133.43,485.34 143.12,487.91 153.00,488.00 Z
           M 128.00,219.00
           C 124.89,221.22 119.82,225.05 119.06,229.00
             118.69,230.94 120.61,238.26 121.00,241.00
             121.00,241.00 123.00,241.00 123.00,241.00
             123.00,241.00 128.00,219.00 128.00,219.00 Z
           M 209.00,223.00
           C 206.86,228.01 205.99,238.93 208.00,244.00
             208.00,244.00 209.00,223.00 209.00,223.00 Z
           M 205.00,254.00
           C 204.88,251.45 204.69,245.64 202.42,244.03
             200.71,242.87 196.99,243.73 195.00,244.03
             187.02,245.07 186.99,245.00 179.00,245.00
             179.00,245.00 179.00,248.00 179.00,248.00
             179.00,248.00 205.00,254.00 205.00,254.00 Z
           M 268.00,262.00
           C 268.00,262.00 260.00,280.00 260.00,280.00
             260.00,280.00 258.06,288.00 258.06,288.00
             258.06,288.00 265.00,297.00 265.00,297.00
             271.32,280.11 268.35,278.15 268.00,262.00 Z
           M 36.00,300.00
           C 36.00,300.00 35.00,300.00 35.00,300.00
             35.00,300.00 36.00,301.00 36.00,301.00
             36.00,301.00 36.00,300.00 36.00,300.00 Z
           M 37.00,301.00
           C 35.39,307.39 42.42,316.11 46.00,321.00
             46.00,321.00 48.00,321.00 48.00,321.00
             48.65,313.84 40.72,306.89 37.00,301.00 Z
           M 328.00,382.00
           C 328.00,382.00 328.00,338.00 328.00,338.00
             328.00,338.00 326.83,329.47 326.83,329.47
             326.83,329.47 317.00,324.32 317.00,324.32
             317.00,324.32 308.00,321.54 308.00,321.54
             308.00,321.54 288.00,314.00 288.00,314.00
             288.00,314.00 288.00,324.00 288.00,324.00
             293.38,324.25 305.77,326.00 311.00,327.26
             313.36,327.83 316.71,328.17 318.57,329.74
             321.30,332.04 322.52,339.48 323.20,343.00
             326.30,359.07 326.00,366.12 326.00,382.00
             326.00,382.00 328.00,382.00 328.00,382.00 Z
           M 681.00,329.00
           C 681.00,329.00 662.00,336.23 662.00,336.23
             662.00,336.23 647.30,341.70 647.30,341.70
             647.30,341.70 640.95,357.00 640.95,357.00
             640.95,357.00 626.00,389.00 626.00,389.00
             626.00,389.00 646.00,379.25 646.00,379.25
             646.00,379.25 656.73,373.37 656.73,373.37
             656.73,373.37 665.30,359.00 665.30,359.00
             665.30,359.00 681.00,329.00 681.00,329.00 Z
           M 331.00,342.00
           C 329.31,346.26 330.00,354.19 330.00,359.00
             330.00,372.33 327.41,387.35 337.00,398.00
             339.47,392.48 346.23,385.18 345.26,380.00
             344.81,377.55 340.63,369.88 339.31,367.00
             335.98,359.74 332.21,349.85 331.00,342.00 Z
           M 324.00,360.00
           C 324.00,360.00 302.00,372.25 302.00,372.25
             302.00,372.25 291.02,379.21 291.02,379.21
             291.02,379.21 290.00,401.00 290.00,401.00
             290.00,401.00 312.00,390.79 312.00,390.79
             312.00,390.79 322.43,386.03 322.43,386.03
             322.43,386.03 324.00,380.00 324.00,380.00
             324.00,380.00 324.00,360.00 324.00,360.00 Z
           M 284.00,411.00
           C 281.25,415.18 278.26,420.26 281.00,425.00
             281.00,425.00 284.00,411.00 284.00,411.00 Z
           M 11.00,412.00
           C 11.00,412.00 15.69,422.00 15.69,422.00
             15.69,422.00 23.21,432.26 23.21,432.26
             23.21,432.26 35.00,435.00 35.00,435.00
             35.00,435.00 57.00,438.00 57.00,438.00
             57.00,438.00 45.61,417.93 45.61,417.93
             45.61,417.93 35.00,415.42 35.00,415.42
             35.00,415.42 11.00,412.00 11.00,412.00 Z
           M 330.00,427.00
           C 327.82,432.50 329.99,441.62 330.00,448.00
             330.00,448.00 330.00,473.00 330.00,473.00
             330.04,474.69 330.03,476.37 330.58,478.00
             332.59,483.83 343.88,495.33 349.00,499.00
             349.00,499.00 350.00,482.00 350.00,482.00
             350.00,482.00 350.96,470.00 350.96,470.00
             350.96,470.00 350.96,457.00 350.96,457.00
             350.96,457.00 350.43,450.28 350.43,450.28
             350.43,450.28 343.01,442.00 343.01,442.00
             343.01,442.00 330.00,427.00 330.00,427.00 Z
           M 394.00,436.00
           C 394.00,436.00 367.00,446.60 367.00,446.60
             367.00,446.60 355.99,451.70 355.99,451.70
             355.99,451.70 355.00,459.00 355.00,459.00
             355.00,459.00 354.04,472.00 354.04,472.00
             354.04,472.00 354.04,485.00 354.04,485.00
             354.04,485.00 353.00,502.00 353.00,502.00
             353.00,502.00 377.00,490.76 377.00,490.76
             377.00,490.76 386.02,485.59 386.02,485.59
             386.02,485.59 389.13,470.00 389.13,470.00
             389.13,470.00 394.00,436.00 394.00,436.00 Z
           M 398.00,438.00
           C 398.00,438.00 392.58,472.00 392.58,472.00
             392.19,474.69 390.73,483.57 391.59,485.68
             392.66,488.29 398.53,491.73 401.00,493.31
             408.97,498.37 422.76,505.33 432.00,507.00
             432.00,507.00 440.13,474.00 440.13,474.00
             440.83,471.17 443.42,462.83 442.39,460.42
             441.20,457.61 432.01,455.36 429.00,454.19
             418.84,450.25 407.13,443.96 398.00,438.00 Z
           M 632.00,441.00
           C 632.00,441.00 631.00,441.00 631.00,441.00
             631.00,441.00 632.00,442.00 632.00,442.00
             632.00,442.00 632.00,441.00 632.00,441.00 Z
           M 607.00,458.00
           C 607.00,458.00 569.00,442.00 569.00,442.00
             569.00,442.00 553.75,474.00 553.75,474.00
             552.44,476.63 548.10,484.08 548.81,486.73
             549.54,489.45 555.57,491.39 558.00,492.42
             558.00,492.42 584.00,503.00 584.00,503.00
             584.00,503.00 607.00,458.00 607.00,458.00 Z
           M 631.00,442.00
           C 631.00,442.00 630.00,442.00 630.00,442.00
             630.00,442.00 631.00,443.00 631.00,443.00
             631.00,443.00 631.00,442.00 631.00,442.00 Z
           M 630.00,443.00
           C 630.00,443.00 610.96,460.17 610.96,460.17
             610.96,460.17 600.74,479.00 600.74,479.00
             600.74,479.00 593.00,495.00 593.00,495.00
             608.69,484.49 613.86,475.02 622.25,459.00
             625.20,453.39 628.23,449.21 630.00,443.00 Z
           M 563.00,446.00
           C 563.00,446.00 562.00,446.00 562.00,446.00
             562.00,446.00 563.00,447.00 563.00,447.00
             563.00,447.00 563.00,446.00 563.00,446.00 Z
           M 562.00,447.00
           C 562.00,447.00 534.00,457.28 534.00,457.28
             534.00,457.28 522.08,461.53 522.08,461.53
             522.08,461.53 517.60,472.00 517.60,472.00
             517.60,472.00 508.00,497.00 508.00,497.00
             514.26,495.82 537.50,490.31 541.79,487.16
             544.85,484.91 547.49,478.51 549.25,475.00
             552.77,467.95 559.99,454.05 562.00,447.00 Z
           M 283.00,498.00
           C 283.00,498.00 282.00,482.00 282.00,482.00
             282.00,482.00 280.43,475.14 280.43,475.14
             280.43,475.14 272.00,472.00 272.00,472.00
             272.00,472.00 254.00,466.42 254.00,466.42
             254.00,466.42 245.00,465.03 245.00,465.03
             245.00,465.03 232.00,473.19 232.00,473.19
             232.00,473.19 208.00,485.00 208.00,485.00
             208.00,485.00 214.00,506.00 214.00,506.00
             221.54,503.62 228.59,497.73 235.00,493.14
             237.33,491.47 242.43,487.51 245.00,486.91
             248.13,486.17 253.85,488.65 257.00,489.66
             257.00,489.66 283.00,498.00 283.00,498.00 Z
           M 297.00,464.00
           C 293.64,466.93 287.93,472.78 286.56,477.00
             285.65,479.81 286.00,491.31 286.00,495.00
             289.97,493.03 290.89,491.67 293.30,488.00
             298.63,479.91 299.29,473.40 297.00,464.00 Z
           M 447.00,464.00
           C 447.00,464.00 438.87,494.00 438.87,494.00
             437.98,497.56 435.31,506.88 435.50,510.00
             435.68,513.08 439.74,523.23 441.00,527.00
             442.59,531.76 445.21,542.10 449.00,545.00
             449.00,545.00 457.37,513.00 457.37,513.00
             457.37,513.00 460.45,499.00 460.45,499.00
             460.45,499.00 447.00,464.00 447.00,464.00 Z
           M 156.00,516.00
           C 156.00,516.00 149.15,493.51 149.15,493.51
             149.15,493.51 138.00,490.12 138.00,490.12
             138.00,490.12 113.00,483.00 113.00,483.00
             113.83,487.44 119.29,501.46 122.41,504.35
             124.26,506.06 129.49,508.10 132.00,509.14
             139.58,512.27 147.76,515.62 156.00,516.00 Z
           M 109.00,484.00
           C 109.00,484.00 79.00,503.00 79.00,503.00
             79.00,503.00 90.00,525.00 90.00,525.00
             90.00,525.00 110.00,511.00 110.00,511.00
             112.36,509.30 116.14,507.14 116.31,503.91
             116.31,503.91 109.00,484.00 109.00,484.00 Z
           M 207.00,494.00
           C 204.29,497.62 204.07,502.63 202.95,507.00
             200.92,518.41 199.41,520.48 202.95,532.00
             203.63,535.23 204.09,537.18 206.00,540.00
             206.00,540.00 210.38,511.00 210.38,511.00
             210.38,511.00 207.00,494.00 207.00,494.00 Z
           M 593.00,495.00
           C 593.00,495.00 592.00,495.00 592.00,495.00
             592.00,495.00 593.00,496.00 593.00,496.00
             593.00,496.00 593.00,495.00 593.00,495.00 Z
           M 66.00,498.00
           C 66.83,505.14 74.70,514.02 81.00,517.00
             78.24,507.31 74.74,502.91 66.00,498.00 Z
           M 501.00,502.02
           C 501.00,502.02 478.00,502.02 478.00,502.02
             478.00,502.02 465.51,502.02 465.51,502.02
             465.51,502.02 460.71,515.00 460.71,515.00
             460.71,515.00 451.00,551.00 451.00,551.00
             451.00,551.00 475.00,551.00 475.00,551.00
             475.00,551.00 483.19,549.40 483.19,549.40
             483.19,549.40 488.95,536.00 488.95,536.00
             488.95,536.00 501.00,502.02 501.00,502.02 Z
           M 161.00,516.00
           C 161.00,516.00 160.00,516.00 160.00,516.00
             160.00,516.00 161.00,517.00 161.00,517.00
             161.00,517.00 161.00,516.00 161.00,516.00 Z
           M 82.00,517.00
           C 82.00,517.00 81.00,517.00 81.00,517.00
             81.00,517.00 82.00,518.00 82.00,518.00
             82.00,518.00 82.00,517.00 82.00,517.00 Z
           M 162.00,518.00
           C 162.00,518.00 161.00,518.00 161.00,518.00
             161.00,518.00 162.00,519.00 162.00,519.00
             162.00,519.00 162.00,518.00 162.00,518.00 Z
           M 203.00,549.00
           C 203.00,549.00 199.37,534.00 199.37,534.00
             199.37,534.00 196.44,526.88 196.44,526.88
             196.44,526.88 189.00,526.88 189.00,526.88
             189.00,526.88 170.00,529.00 170.00,529.00
             170.00,529.00 174.66,544.00 174.66,544.00
             174.66,544.00 177.56,549.98 177.56,549.98
             177.56,549.98 186.00,550.58 186.00,550.58
             186.00,550.58 203.00,549.00 203.00,549.00 Z" />
</svg>
